<svg aria-hidden="true" style="position: absolute; width: 0; height: 0; overflow: hidden;" version="1.1"
    xmlns="http://www.w3.org/2000/svg" xmlns:xlink="http://www.w3.org/1999/xlink">
    <defs>
        <symbol id="icon-quotes" viewBox="0 0 43 32">
            <path fill="#e1e1e1" style="fill: var(--color1, #e1e1e1)"
                d="M32.014 0c1.929 0 3.75 0.52 5.464 1.561s3.107 2.537 4.179 4.488c1.029 1.951 1.543 4.249 1.543 6.894s-0.643 5.225-1.929 7.74c-0.429 0.911-1.2 2.081-2.314 3.512-1.157 1.431-2.229 2.667-3.214 3.707l-4.050 4.098-2.893-4.813c2.014-1.257 3.793-2.818 5.336-4.683 1.543-1.821 2.314-3.491 2.314-5.008 0-0.78-0.171-1.409-0.514-1.886-1.5 1.084-3.171 1.626-5.014 1.626-1.329 0-2.593-0.412-3.793-1.236-1.243-0.78-2.229-1.821-2.957-3.122-0.771-1.258-1.157-2.558-1.157-3.902 0-1.518 0.45-2.97 1.35-4.358 0.857-1.388 1.993-2.515 3.407-3.382 1.371-0.824 2.786-1.236 4.243-1.236zM8.936 0c1.929 0 3.75 0.52 5.464 1.561s3.107 2.537 4.179 4.488c1.029 1.951 1.543 4.249 1.543 6.894 0 1.864-0.236 3.534-0.707 5.008-0.471 1.518-1.286 3.1-2.443 4.748-1.114 1.561-2.164 2.862-3.15 3.902-0.986 1.084-2.7 2.884-5.143 5.398l-2.893-4.813c2.014-1.257 3.793-2.818 5.336-4.683 1.543-1.821 2.314-3.491 2.314-5.008 0-0.78-0.171-1.409-0.514-1.886-1.5 1.084-3.171 1.626-5.014 1.626-1.329 0-2.593-0.412-3.793-1.236-1.243-0.78-2.229-1.821-2.957-3.122-0.771-1.258-1.157-2.558-1.157-3.902 0-1.518 0.429-2.97 1.286-4.358s1.993-2.515 3.407-3.382c1.371-0.824 2.786-1.236 4.243-1.236z">
            </path>
        </symbol>
        <symbol id="icon-white-arrow" viewBox="0 0 22 32">
            <path fill="none" stroke="#fff" style="stroke: var(--color2, #fff)" stroke-linejoin="round"
                stroke-linecap="round" stroke-miterlimit="4" stroke-width="6.4" d="M4.488 3.2l13.7 12.8-13.7 12.8">
            </path>
        </symbol>
        <symbol id="icon-Burger" viewBox="0 0 46 32">
            <path fill="none" stroke="#d41443" style="stroke: var(--color3, #d41443)" stroke-linejoin="miter"
                stroke-linecap="butt" stroke-miterlimit="4" stroke-width="2.2857" d="M0 2.286h45.714"></path>
            <path fill="none" stroke="#d41443" style="stroke: var(--color3, #d41443)" stroke-linejoin="miter"
                stroke-linecap="butt" stroke-miterlimit="4" stroke-width="2.2857" d="M0 16h45.714"></path>
            <path fill="none" stroke="#d41443" style="stroke: var(--color3, #d41443)" stroke-linejoin="miter"
                stroke-linecap="butt" stroke-miterlimit="4" stroke-width="2.2857" d="M0 29.714h45.714"></path>
        </symbol>
        <symbol id="icon-button-vektor" viewBox="0 0 19 32">
            <path fill="none" stroke="#d41443" style="stroke: var(--color3, #d41443)" stroke-linejoin="round"
                stroke-linecap="round" stroke-miterlimit="4" stroke-width="6.4" d="M3.2 3.2l12.8 12.8-12.8 12.8"></path>
        </symbol>
        <symbol id="icon-close" viewBox="0 0 32 32">
            <path fill="none" stroke="#fff" style="stroke: var(--color2, #fff)" stroke-linejoin="miter"
                stroke-linecap="butt" stroke-miterlimit="4" stroke-width="2" d="M2.519 2l26.963 28"></path>
            <path fill="none" stroke="#fff" style="stroke: var(--color2, #fff)" stroke-linejoin="miter"
                stroke-linecap="butt" stroke-miterlimit="4" stroke-width="2" d="M2 29.481l28-26.963"></path>
        </symbol>
        <symbol id="icon-facebook" viewBox="0 0 16 32">
            <path fill="#fff" style="fill: var(--color2, #fff)"
                d="M14.143 15.972h-4.034v14.865h-6.112v-14.865h-2.907v-5.224h2.907v-3.381c0-2.418 1.142-6.203 6.166-6.203l4.527 0.019v5.071h-3.285c-0.539 0-1.296 0.271-1.296 1.424v3.075h4.567l-0.534 5.219z">
            </path>
        </symbol>
        <symbol id="icon-git" viewBox="0 0 32 32">
            <path fill="#fff" style="fill: var(--color2, #fff)"
                d="M16 0c-8.788 0-16 7.212-16 16 0 7.499 5.262 14.312 12.25 16v-5.293c-0.692 0.152-1.33 0.156-2.034-0.052-0.946-0.279-1.714-0.909-2.284-1.869-0.364-0.613-1.008-1.278-1.68-1.23l-0.165-1.868c1.453-0.124 2.711 0.886 3.457 2.14 0.332 0.558 0.713 0.884 1.203 1.029 0.473 0.14 0.982 0.072 1.574-0.137 0.149-1.186 0.692-1.63 1.102-2.255v-0.001c-4.167-0.622-5.828-2.832-6.488-4.578-0.874-2.317-0.405-5.212 1.14-7.041 0.030-0.036 0.084-0.129 0.063-0.194-0.708-2.139 0.155-3.909 0.187-4.097 0.817 0.242 0.95-0.243 3.551 1.337l0.449 0.27c0.188 0.112 0.129 0.048 0.317 0.034 1.086-0.295 2.23-0.458 3.358-0.472 1.136 0.015 2.273 0.178 3.404 0.484l0.145 0.015c-0.013-0.002 0.040-0.009 0.127-0.062 3.248-1.968 3.132-1.324 4.003-1.608 0.032 0.188 0.883 1.987 0.182 4.099-0.095 0.291 2.816 2.956 1.203 7.235-0.659 1.746-2.32 3.957-6.487 4.578v0.001c0.534 0.814 1.176 1.247 1.173 2.927v6.608c6.988-1.688 12.25-8.501 12.25-16 0-8.788-7.212-16-16-16v0z">
            </path>
        </symbol>
        <symbol id="icon-home" viewBox="0 0 35 32">
            <path fill="#d31342" style="fill: var(--color4, #d31342)"
                d="M34.253 15.613c0.599-0.659 0.541-1.669-0.129-2.255l-14.772-12.926c-0.671-0.586-1.745-0.574-2.402 0.028l-14.822 13.587c-0.656 0.602-0.689 1.611-0.071 2.252l0.372 0.387c0.617 0.642 1.613 0.718 2.224 0.17l1.108-0.992v14.523c0 0.891 0.722 1.613 1.612 1.613h5.778c0.89 0 1.612-0.721 1.612-1.613v-10.16h7.37v10.16c-0.013 0.89 0.624 1.612 1.515 1.612h6.123c0.89 0 1.613-0.722 1.613-1.613v-14.318c0 0 0.306 0.268 0.683 0.6s1.168 0.066 1.767-0.594l0.42-0.462z">
            </path>
        </symbol>
        <symbol id="icon-telegram" viewBox="0 0 44 32">
            <path fill="#fff" style="fill: var(--color2, #fff)"
                d="M17.343 21.048l-0.675 8.86c0.966 0 1.384-0.387 1.885-0.852l4.527-4.038 9.381 6.412c1.72 0.895 2.933 0.424 3.397-1.477l6.157-26.929 0.002-0.002c0.546-2.374-0.92-3.302-2.596-2.72l-36.194 12.933c-2.47 0.895-2.433 2.18-0.42 2.762l9.253 2.686 21.494-12.552c1.011-0.625 1.931-0.279 1.175 0.346l-17.386 14.57z">
            </path>
        </symbol>
        <symbol id="icon-Ellips-des" viewBox="0 0 32 32">
            <path fill="#ffa5ba" style="fill: var(--color3, #ffa5ba)"
                d="M32 16c0 8.837-7.163 16-16 16s-16-7.163-16-16c0-8.837 7.163-16 16-16s16 7.163 16 16z"></path>
        </symbol>
        <symbol id="icon-16" viewBox="0 0 30 32">
            <path fill="#fff" style="fill: var(--color1, #fff)"
                d="M29.922 6.234c0 3.443-2.791 6.234-6.234 6.234s-6.234-2.791-6.234-6.234c0-3.443 2.791-6.234 6.234-6.234s6.234 2.791 6.234 6.234z">
            </path>
            <path fill="#d41443" style="fill: var(--color2, #d41443)"
                d="M8.252 19.905c0 0.14-0.389 0.255-1.166 0.344-0.777 0.076-1.555 0.115-2.332 0.115s-1.281-0.032-1.51-0.096c-0.217-0.076-0.325-0.198-0.325-0.363v-8.258h-1.95c-0.217 0-0.325-0.465-0.325-1.396s0.108-1.771 0.325-2.523c0.064-0.242 0.739-0.465 2.026-0.669s2.275-0.306 2.963-0.306c0.688 0 1.147 0.025 1.376 0.076s0.401 0.115 0.516 0.191c0.115 0.064 0.204 0.14 0.268 0.229 0.089 0.14 0.134 0.274 0.134 0.401v12.254zM15.691 12.010c0.115-0.102 0.421-0.236 0.918-0.401s1.058-0.249 1.682-0.249c0.637 0 1.172 0.096 1.606 0.287 0.446 0.178 0.79 0.408 1.032 0.688 0.255 0.28 0.452 0.631 0.593 1.051 0.229 0.688 0.344 1.389 0.344 2.103s-0.032 1.255-0.096 1.625c-0.051 0.357-0.191 0.758-0.421 1.204-0.217 0.446-0.516 0.822-0.898 1.128-0.37 0.306-0.905 0.567-1.606 0.784-0.688 0.204-1.498 0.306-2.428 0.306-2.001 0-3.511-0.548-4.531-1.644-1.020-1.109-1.529-2.893-1.529-5.353 0-2.472 0.478-4.25 1.434-5.334 0.956-1.096 2.409-1.644 4.359-1.644 1.338 0 2.498 0.102 3.479 0.306 0.994 0.191 1.491 0.421 1.491 0.688 0 0.331-0.127 0.911-0.382 1.74-0.242 0.828-0.465 1.243-0.669 1.243-0.064 0-0.255-0.032-0.573-0.096-0.867-0.178-1.657-0.268-2.37-0.268s-1.173 0.178-1.376 0.535c-0.204 0.344-0.306 0.854-0.306 1.529 0.051-0.064 0.134-0.14 0.249-0.229zM16.112 13.73c-0.37 0-0.554 0.688-0.554 2.065 0 1.364 0.185 2.045 0.554 2.045 0.395 0 0.593-0.682 0.593-2.046 0-1.376-0.198-2.065-0.593-2.065z">
            </path>
            <path fill="#fff" style="fill: var(--color1, #fff)"
                d="M9.658 30.407c-0.275 0-0.524-0.062-0.745-0.186-0.217-0.128-0.39-0.305-0.518-0.529-0.124-0.229-0.186-0.495-0.186-0.797s0.062-0.566 0.186-0.791c0.128-0.229 0.301-0.405 0.518-0.529 0.221-0.128 0.469-0.192 0.745-0.192 0.341 0 0.628 0.089 0.861 0.268 0.237 0.178 0.386 0.417 0.448 0.716h-0.5c-0.039-0.178-0.134-0.316-0.285-0.413-0.151-0.101-0.328-0.151-0.529-0.151-0.163 0-0.316 0.041-0.46 0.122s-0.26 0.204-0.349 0.367c-0.089 0.163-0.134 0.365-0.134 0.605s0.045 0.442 0.134 0.605c0.089 0.163 0.206 0.287 0.349 0.372 0.144 0.081 0.297 0.122 0.46 0.122 0.202 0 0.378-0.049 0.529-0.145 0.151-0.101 0.246-0.242 0.285-0.425h0.5c-0.058 0.291-0.206 0.527-0.442 0.71s-0.526 0.273-0.867 0.273zM12.61 30.407c-0.241 0-0.44-0.041-0.599-0.122s-0.277-0.19-0.355-0.326c-0.078-0.136-0.116-0.283-0.116-0.442 0-0.295 0.113-0.522 0.337-0.681s0.531-0.239 0.919-0.239h0.78v-0.035c0-0.252-0.066-0.442-0.198-0.57-0.132-0.132-0.308-0.198-0.529-0.198-0.19 0-0.355 0.049-0.495 0.145-0.136 0.093-0.221 0.231-0.256 0.413h-0.5c0.019-0.209 0.089-0.386 0.209-0.529 0.124-0.143 0.277-0.252 0.46-0.326 0.182-0.078 0.376-0.116 0.582-0.116 0.403 0 0.706 0.109 0.908 0.326 0.206 0.213 0.308 0.498 0.308 0.855v1.775h-0.436l-0.029-0.518c-0.081 0.163-0.202 0.303-0.361 0.419-0.155 0.113-0.365 0.169-0.628 0.169zM12.685 29.994c0.186 0 0.345-0.049 0.477-0.145 0.136-0.097 0.239-0.223 0.308-0.378s0.105-0.318 0.105-0.489v-0.006h-0.739c-0.287 0-0.491 0.050-0.611 0.151-0.116 0.097-0.175 0.219-0.175 0.367 0 0.151 0.054 0.273 0.163 0.367 0.113 0.089 0.27 0.134 0.471 0.134zM14.955 30.338v-2.473h-0.436v-0.413h0.436v-0.5c0-0.279 0.070-0.483 0.209-0.611s0.343-0.192 0.611-0.192h0.291v0.419h-0.215c-0.147 0-0.252 0.031-0.314 0.093-0.062 0.058-0.093 0.159-0.093 0.303v0.489h0.71v0.413h-0.71v2.473h-0.489zM17.919 30.407c-0.275 0-0.52-0.062-0.733-0.186-0.213-0.128-0.382-0.305-0.506-0.529-0.12-0.225-0.18-0.491-0.18-0.797 0-0.303 0.060-0.566 0.18-0.791 0.12-0.229 0.287-0.405 0.5-0.529 0.217-0.128 0.467-0.192 0.751-0.192 0.279 0 0.52 0.064 0.721 0.192 0.206 0.124 0.363 0.289 0.471 0.495s0.163 0.427 0.163 0.663c0 0.043-0.002 0.085-0.006 0.128 0 0.043 0 0.091 0 0.145h-2.298c0.012 0.221 0.062 0.405 0.151 0.553 0.093 0.143 0.207 0.252 0.343 0.326 0.14 0.074 0.287 0.111 0.442 0.111 0.202 0 0.37-0.047 0.506-0.14s0.235-0.219 0.297-0.378h0.483c-0.078 0.268-0.227 0.491-0.448 0.669-0.217 0.175-0.497 0.262-0.838 0.262zM17.919 27.795c-0.233 0-0.44 0.072-0.623 0.215-0.178 0.14-0.281 0.345-0.308 0.617h1.815c-0.012-0.26-0.101-0.463-0.268-0.611s-0.372-0.221-0.617-0.221zM21.039 30.407c-0.345 0-0.632-0.087-0.861-0.262s-0.363-0.411-0.401-0.71h0.5c0.031 0.151 0.111 0.283 0.239 0.396 0.132 0.109 0.308 0.163 0.529 0.163 0.206 0 0.357-0.043 0.454-0.128 0.097-0.089 0.145-0.194 0.145-0.314 0-0.175-0.064-0.291-0.192-0.349-0.124-0.058-0.301-0.111-0.529-0.157-0.155-0.031-0.31-0.076-0.465-0.134s-0.285-0.14-0.39-0.244c-0.105-0.109-0.157-0.25-0.157-0.425 0-0.252 0.093-0.458 0.279-0.617 0.19-0.163 0.446-0.244 0.768-0.244 0.306 0 0.557 0.078 0.751 0.233 0.198 0.151 0.312 0.369 0.343 0.652h-0.483c-0.019-0.147-0.083-0.262-0.192-0.343-0.105-0.085-0.246-0.128-0.425-0.128-0.175 0-0.31 0.037-0.407 0.111-0.093 0.074-0.14 0.171-0.14 0.291 0 0.116 0.060 0.207 0.18 0.273 0.124 0.066 0.291 0.122 0.5 0.169 0.178 0.039 0.347 0.087 0.506 0.145 0.163 0.054 0.295 0.138 0.396 0.25 0.105 0.109 0.157 0.268 0.157 0.477 0.004 0.26-0.095 0.475-0.297 0.646-0.198 0.167-0.467 0.25-0.809 0.25z">
            </path>
        </symbol>
        <symbol id="icon-23" viewBox="0 0 39 32">
            <path fill="#fff" style="fill: var(--color1, #fff)"
                d="M38.737 6.316c0 3.488-2.828 6.316-6.316 6.316s-6.316-2.828-6.316-6.316c0-3.488 2.828-6.316 6.316-6.316s6.316 2.828 6.316 6.316z">
            </path>
            <path fill="#d41443" style="fill: var(--color2, #d41443)"
                d="M8.601 11.475c-0.362 0-0.678-0.426-0.949-1.278-0.258-0.852-0.387-1.672-0.387-2.46 0-0.181 0.2-0.381 0.6-0.6 0.4-0.232 1.007-0.439 1.821-0.62s1.698-0.271 2.653-0.271c3.706 0 5.559 1.298 5.559 3.893 0 0.723-0.155 1.401-0.465 2.034s-0.652 1.143-1.027 1.53c-0.374 0.374-0.813 0.723-1.317 1.046-0.581 0.362-1.136 0.646-1.666 0.852h3.874c0.077 0 0.161 0.039 0.252 0.116 0.090 0.065 0.187 0.271 0.291 0.62 0.103 0.336 0.155 0.762 0.155 1.278 0 0.504-0.032 0.93-0.097 1.278-0.065 0.336-0.142 0.581-0.232 0.736-0.194 0.349-0.368 0.536-0.523 0.562l-0.097 0.019h-8.483c-0.813 0-1.22-1.272-1.22-3.816 0-0.284 0.839-1.065 2.518-2.344 0.633-0.465 1.214-0.975 1.743-1.53s0.794-1.007 0.794-1.356c0-0.387-0.291-0.581-0.872-0.581s-1.194 0.149-1.84 0.445c-0.633 0.297-0.994 0.445-1.085 0.445zM30.395 9.868c0 1.304-0.517 2.279-1.549 2.925 0.142 0.065 0.323 0.22 0.542 0.465 0.232 0.245 0.426 0.491 0.581 0.736 0.4 0.633 0.6 1.382 0.6 2.247 0 1.42-0.51 2.466-1.53 3.138s-2.421 1.007-4.203 1.007c-0.878 0-1.711-0.071-2.499-0.213-0.775-0.155-1.369-0.323-1.782-0.504-0.413-0.194-0.62-0.368-0.62-0.523 0-0.71 0.077-1.336 0.232-1.879s0.329-0.923 0.523-1.143c0.194-0.232 0.381-0.349 0.562-0.349 0.052 0 0.394 0.116 1.027 0.349s1.252 0.349 1.859 0.349c0.62 0 0.93-0.194 0.93-0.581 0-0.529-0.652-0.813-1.956-0.852-0.517-0.013-0.801-0.026-0.852-0.039-0.271-0.090-0.407-0.659-0.407-1.704s0.136-1.62 0.407-1.724c0.052-0.026 0.336-0.039 0.852-0.039 1.304-0.026 1.956-0.291 1.956-0.794 0-0.387-0.284-0.581-0.852-0.581-0.555 0-1.175 0.136-1.859 0.407s-1.059 0.407-1.123 0.407c-0.297 0-0.568-0.433-0.813-1.298s-0.368-1.478-0.368-1.84c0-0.336 0.374-0.678 1.123-1.027 0.826-0.374 2.040-0.562 3.641-0.562 3.719 0 5.578 1.207 5.578 3.622z">
            </path>
            <path fill="#fff" style="fill: var(--color1, #fff)"
                d="M0.736 30.316v-2.505h-0.442v-0.419h0.442v-0.507c0-0.283 0.071-0.489 0.212-0.619s0.348-0.195 0.619-0.195h0.295v0.424h-0.218c-0.149 0-0.255 0.031-0.318 0.094-0.063 0.059-0.094 0.161-0.094 0.307v0.495h0.719v0.419h-0.719v2.505h-0.495zM3.757 30.387c-0.275 0-0.523-0.063-0.743-0.189s-0.395-0.303-0.525-0.531c-0.126-0.232-0.189-0.503-0.189-0.813s0.065-0.58 0.195-0.808c0.13-0.232 0.305-0.411 0.525-0.536 0.224-0.126 0.474-0.189 0.749-0.189s0.523 0.063 0.743 0.189c0.22 0.126 0.393 0.305 0.519 0.536 0.13 0.228 0.195 0.497 0.195 0.808s-0.065 0.582-0.195 0.813c-0.13 0.228-0.307 0.405-0.531 0.531-0.22 0.126-0.468 0.189-0.743 0.189zM3.757 29.962c0.169 0 0.326-0.041 0.472-0.124s0.263-0.206 0.354-0.371c0.090-0.165 0.136-0.369 0.136-0.613s-0.045-0.448-0.136-0.613c-0.086-0.165-0.202-0.289-0.348-0.371s-0.301-0.124-0.466-0.124c-0.169 0-0.326 0.041-0.472 0.124s-0.263 0.206-0.354 0.371c-0.090 0.165-0.136 0.369-0.136 0.613s0.045 0.448 0.136 0.613c0.090 0.165 0.206 0.289 0.348 0.371 0.145 0.083 0.301 0.124 0.466 0.124zM7.246 30.387c-0.275 0-0.523-0.063-0.743-0.189s-0.395-0.303-0.525-0.531c-0.126-0.232-0.189-0.503-0.189-0.813s0.065-0.58 0.195-0.808c0.13-0.232 0.305-0.411 0.525-0.536 0.224-0.126 0.474-0.189 0.749-0.189s0.523 0.063 0.743 0.189c0.22 0.126 0.393 0.305 0.519 0.536 0.13 0.228 0.195 0.497 0.195 0.808s-0.065 0.582-0.195 0.813c-0.13 0.228-0.307 0.405-0.531 0.531-0.22 0.126-0.468 0.189-0.743 0.189zM7.246 29.962c0.169 0 0.326-0.041 0.472-0.124s0.263-0.206 0.354-0.371c0.090-0.165 0.136-0.369 0.136-0.613s-0.045-0.448-0.136-0.613c-0.086-0.165-0.202-0.289-0.348-0.371s-0.301-0.124-0.466-0.124c-0.169 0-0.326 0.041-0.472 0.124s-0.263 0.206-0.354 0.371c-0.090 0.165-0.136 0.369-0.136 0.613s0.045 0.448 0.136 0.613c0.090 0.165 0.206 0.289 0.348 0.371 0.145 0.083 0.301 0.124 0.466 0.124zM10.728 30.387c-0.291 0-0.546-0.067-0.766-0.2-0.216-0.134-0.385-0.316-0.507-0.548-0.118-0.232-0.177-0.495-0.177-0.79s0.061-0.556 0.183-0.784c0.122-0.232 0.291-0.413 0.507-0.542 0.216-0.134 0.472-0.2 0.766-0.2 0.24 0 0.452 0.049 0.637 0.147s0.328 0.236 0.43 0.413v-1.81h0.495v4.244h-0.448l-0.047-0.483c-0.094 0.141-0.23 0.269-0.407 0.383s-0.399 0.171-0.666 0.171zM10.781 29.956c0.196 0 0.369-0.045 0.519-0.136 0.153-0.094 0.271-0.224 0.354-0.389 0.086-0.165 0.13-0.358 0.13-0.578s-0.043-0.413-0.13-0.578c-0.083-0.165-0.2-0.293-0.354-0.383-0.149-0.094-0.322-0.141-0.519-0.141-0.193 0-0.365 0.047-0.519 0.141-0.149 0.090-0.267 0.218-0.354 0.383-0.083 0.165-0.124 0.358-0.124 0.578s0.041 0.413 0.124 0.578c0.086 0.165 0.204 0.295 0.354 0.389 0.153 0.090 0.326 0.136 0.519 0.136zM15.819 30.316c-0.267 0-0.477-0.065-0.631-0.195s-0.23-0.363-0.23-0.701v-1.609h-0.507v-0.419h0.507l0.065-0.701h0.43v0.701h0.861v0.419h-0.861v1.609c0 0.185 0.037 0.31 0.112 0.377 0.075 0.063 0.206 0.094 0.395 0.094h0.307v0.424h-0.448zM16.943 30.316v-2.924h0.448l0.041 0.56c0.090-0.193 0.228-0.346 0.413-0.46s0.413-0.171 0.684-0.171v0.519h-0.136c-0.173 0-0.332 0.031-0.477 0.094-0.145 0.059-0.261 0.161-0.348 0.307s-0.13 0.346-0.13 0.601v1.474h-0.495zM20.151 30.387c-0.346 0-0.621-0.104-0.825-0.312-0.204-0.212-0.307-0.536-0.307-0.973v-1.709h0.495v1.656c0 0.609 0.25 0.914 0.749 0.914 0.255 0 0.466-0.090 0.631-0.271 0.169-0.185 0.253-0.446 0.253-0.784v-1.515h0.495v2.924h-0.448l-0.035-0.525c-0.090 0.185-0.226 0.33-0.407 0.436-0.177 0.106-0.377 0.159-0.601 0.159zM23.802 30.387c-0.279 0-0.531-0.063-0.755-0.189-0.22-0.13-0.395-0.308-0.525-0.536-0.126-0.232-0.189-0.501-0.189-0.808s0.063-0.574 0.189-0.802c0.13-0.232 0.305-0.411 0.525-0.536 0.224-0.13 0.476-0.195 0.755-0.195 0.346 0 0.637 0.090 0.872 0.271 0.24 0.181 0.391 0.422 0.454 0.725h-0.507c-0.039-0.181-0.136-0.32-0.289-0.419-0.153-0.102-0.332-0.153-0.536-0.153-0.165 0-0.32 0.041-0.466 0.124s-0.263 0.206-0.354 0.371c-0.090 0.165-0.136 0.369-0.136 0.613s0.045 0.448 0.136 0.613c0.090 0.165 0.208 0.291 0.354 0.377 0.145 0.083 0.301 0.124 0.466 0.124 0.204 0 0.383-0.049 0.536-0.147 0.153-0.102 0.25-0.246 0.289-0.43h0.507c-0.059 0.295-0.208 0.534-0.448 0.719s-0.532 0.277-0.878 0.277zM25.82 30.316v-4.244h0.495v2.552l1.197-1.232h0.607l-1.297 1.32 1.462 1.603h-0.631l-1.338-1.515v1.515h-0.495zM29.737 30.387c-0.35 0-0.641-0.088-0.872-0.265s-0.367-0.417-0.407-0.719h0.507c0.031 0.153 0.112 0.287 0.242 0.401 0.134 0.11 0.312 0.165 0.536 0.165 0.208 0 0.362-0.043 0.46-0.13 0.098-0.090 0.147-0.197 0.147-0.318 0-0.177-0.065-0.295-0.195-0.354-0.126-0.059-0.305-0.112-0.536-0.159-0.157-0.031-0.314-0.077-0.472-0.136s-0.289-0.141-0.395-0.248c-0.106-0.11-0.159-0.253-0.159-0.43 0-0.255 0.094-0.464 0.283-0.625 0.193-0.165 0.452-0.248 0.778-0.248 0.31 0 0.564 0.079 0.76 0.236 0.2 0.153 0.316 0.373 0.348 0.66h-0.489c-0.020-0.149-0.084-0.265-0.195-0.348-0.106-0.086-0.25-0.13-0.43-0.13-0.177 0-0.314 0.037-0.413 0.112-0.094 0.075-0.141 0.173-0.141 0.295 0 0.118 0.061 0.21 0.183 0.277 0.126 0.067 0.295 0.124 0.507 0.171 0.181 0.039 0.352 0.088 0.513 0.147 0.165 0.055 0.299 0.14 0.401 0.253 0.106 0.11 0.159 0.271 0.159 0.483 0.004 0.263-0.096 0.481-0.301 0.654-0.2 0.169-0.474 0.253-0.819 0.253z">
            </path>
        </symbol>
        <symbol id="icon-close" viewBox="0 0 32 32">
            <path fill="none" stroke="#fff" style="stroke: var(--color1, #fff)" stroke-linejoin="miter"
                stroke-linecap="butt" stroke-miterlimit="4" stroke-width="2" d="M2.519 2l26.963 28"></path>
            <path fill="none" stroke="#fff" style="stroke: var(--color1, #fff)" stroke-linejoin="miter"
                stroke-linecap="butt" stroke-miterlimit="4" stroke-width="2" d="M2 29.481l28-26.963"></path>
        </symbol>
    </defs>
</svg>